<svg xmlns="http://www.w3.org/2000/svg" version="1.1" xmlns:xlink="http://www.w3.org/1999/xlink" xmlns:svgjs="http://svgjs.dev/svgjs" width="1000" height="315" viewBox="0 0 1000 315"><g transform="matrix(1,0,0,1,-0.6056348047761162,0.21762861345627016)"><svg viewBox="0 0 396 125" data-background-color="#ffffff" preserveAspectRatio="xMidYMid meet" height="315" width="1000" xmlns="http://www.w3.org/2000/svg" xmlns:xlink="http://www.w3.org/1999/xlink"><g id="tight-bounds" transform="matrix(1,0,0,1,0.24008861730862918,-0.0863605608953435)"><svg viewBox="0 0 395.52 125.17271840533724" height="125.17271840533724" width="395.52"><g><svg viewBox="0 0 395.52 125.17271840533724" height="125.17271840533724" width="395.52"><g><svg viewBox="0 0 395.52 125.17271840533724" height="125.17271840533724" width="395.52"><g id="textblocktransform"><svg viewBox="0 0 395.52 125.17271840533724" height="125.17271840533724" width="395.52" id="textblock"><g><svg viewBox="0 0 395.52 125.17271840533724" height="125.17271840533724" width="395.52"><path d="M394.594 26.847C392.735 13.854 387.435 10.242 387.435 10.242 371.165-3.14 350.86-0.256 332.619 1.667 300.414 1.745 268.339 4.603 236.208 6.136 168.767 6.37 100.749 2.524 33.643 12.009 27.339 14.92-6.54 12.581 1.121 28.51 3.129 35.137 10.456 42.491 10.232 48.571 11.236 49.637 12.631 47.194 13.226 48.727 15.309 52.859 18.711 50.91 21.501 53.353 17.614 59.875 20.403 65.306 23.062 70.997 18.377 72.478 12.371 71.777 9.675 76.688 9.396 80.248 7.89 79.572 6.235 79.416 5.026 79.312 2.59 79.702 2.999 80.82 4.394 84.64-1.594 86.848 2.162 90.59-0.422 94.644 3.948 98.152 3.353 102.544 3.278 103.427 3.687 104.181 4.338 104.389 7.22 105.506 3.018 107.689 3.464 110.054 33.029 126.217 65.104 115.043 95.394 122.475 103.259 117.278 97.346 124.32 100.489 123.228 102.943 121.955 104.728 127.23 107.499 124.242 107.927 123.384 107.276 121.357 108.8 121.747 109.6 121.955 110.307 121.903 110.418 120.708 110.586 118.915 109.117 120.032 108.726 119.097 112.947 114.367 111.906 125.619 115.866 125.151 115.68 123.774 114.528 121.799 116.889 122.059 119.232 120.084 119.306 118.447 121.389 122.891 121.463 123.852 121.835 124.528 122.43 124.995 128.938 120.162 135.409 126.71 142.233 124.528 146.417 122.137 150.433 125.827 154.672 124.917 156.16 124.19 157.666 122.891 159.098 125.073 176.632 125.541 195.319 123.592 211.943 125.151 256.364 122.241 303.835 126.347 350.674 122.501 361.719 121.02 373.192 118.915 383.958 117.226 383.958 117.226 392.679 112.6 392.679 91.812S394.538 73.622 394.817 57.069C395.096 40.516 396.398 39.84 394.538 26.847Z" opacity="1" fill="#61777f" data-fill-palette-color="tertiary"></path><g transform="matrix(1,0,0,1,55.76832,26.230666666666668)"><svg width="283.98335999999995" viewBox="2.299999952316284 -47 204.8300018310547 52.45000076293945" height="72.71138507200389" data-palette-color="#ffffff"><path d="M41.15-29.8Q41.15-25.55 38.95-22 36.75-18.45 32.55-16.2 28.35-13.95 22.55-13.55L22.55-13.55 20.4-1.5Q19.15 5.45 13.6 5.45L13.6 5.45Q10.55 5.45 7.98 3.65 5.4 1.85 3.85-1.85 2.3-5.55 2.3-10.95L2.3-10.95Q2.3-21.1 5.58-28.18 8.85-35.25 14.38-38.78 19.9-42.3 26.55-42.3L26.55-42.3Q31.25-42.3 34.52-40.65 37.8-39 39.48-36.18 41.15-33.35 41.15-29.8L41.15-29.8ZM23.45-18.7Q33.7-20 33.7-29.35L33.7-29.35Q33.7-32.65 31.53-34.73 29.35-36.8 24.8-36.8L24.8-36.8Q19.65-36.8 15.83-33.55 12-30.3 9.93-24.53 7.85-18.75 7.85-11.35L7.85-11.35Q7.85-8.25 8.47-5.85 9.1-3.45 10.08-2.13 11.05-0.8 11.95-0.8L11.95-0.8Q13.2-0.8 13.85-4.25L13.85-4.25 15.5-13.7Q13.55-14 13.8-13.95L13.8-13.95Q12.3-14.2 11.85-14.88 11.4-15.55 11.4-16.6L11.4-16.6Q11.4-17.7 12.03-18.35 12.65-19 13.75-19L13.75-19Q14.25-19 14.5-18.95L14.5-18.95Q15.7-18.75 16.35-18.7L16.35-18.7Q17-22.6 18.2-29.15L18.2-29.15Q18.5-30.85 19.58-31.58 20.65-32.3 22.1-32.3L22.1-32.3Q23.75-32.3 24.48-31.68 25.2-31.05 25.2-29.7L25.2-29.7Q25.2-28.9 25.1-28.4L25.1-28.4 23.45-18.7ZM43.2 0.25Q41.3 0.25 40.52-1.75 39.75-3.75 39.75-8.15L39.75-8.15Q39.75-14.65 41.6-20.5L41.6-20.5Q42.05-21.95 43.07-22.63 44.1-23.3 45.95-23.3L45.95-23.3Q46.95-23.3 47.35-23.05 47.75-22.8 47.75-22.1L47.75-22.1Q47.75-21.3 47-18.5L47-18.5Q46.5-16.5 46.2-15 45.9-13.5 45.7-11.3L45.7-11.3Q47.35-15.6 49.4-18.3 51.45-21 53.42-22.15 55.4-23.3 57.05-23.3L57.05-23.3Q60.3-23.3 60.3-20.05L60.3-20.05Q60.3-19.4 59.85-16.9L59.85-16.9Q59.45-14.9 59.45-14.4L59.45-14.4Q59.45-12.65 60.7-12.65L60.7-12.65Q62.1-12.65 64.3-14.85L64.3-14.85Q64.95-15.5 65.65-15.5L65.65-15.5Q66.3-15.5 66.67-14.93 67.05-14.35 67.05-13.4L67.05-13.4Q67.05-11.55 66.05-10.5L66.05-10.5Q64.65-9.05 62.77-8.03 60.9-7 58.8-7L58.8-7Q56.15-7 54.77-8.35 53.4-9.7 53.4-12L53.4-12Q53.4-12.75 53.55-13.5L53.55-13.5Q53.65-14.5 53.65-14.85L53.65-14.85Q53.65-15.65 53.1-15.65L53.1-15.65Q52.35-15.65 51.12-13.98 49.9-12.3 48.7-9.55 47.5-6.8 46.75-3.75L46.75-3.75Q46.2-1.4 45.47-0.58 44.75 0.25 43.2 0.25L43.2 0.25ZM87.9-15.35Q88.55-15.35 88.9-14.7 89.25-14.05 89.25-13.05L89.25-13.05Q89.25-10.65 87.8-10.2L87.8-10.2Q84.8-9.15 81.2-9L81.2-9Q80.25-4.8 77.45-2.27 74.65 0.25 71.09 0.25L71.09 0.25Q68.09 0.25 65.97-1.2 63.85-2.65 62.75-5.05 61.65-7.45 61.65-10.25L61.65-10.25Q61.65-14.05 63.1-17.03 64.55-20 67.09-21.68 69.65-23.35 72.75-23.35L72.75-23.35Q76.55-23.35 78.87-20.73 81.2-18.1 81.59-14.25L81.59-14.25Q83.95-14.4 87.2-15.25L87.2-15.25Q87.59-15.35 87.9-15.35L87.9-15.35ZM71.5-5.05Q73.09-5.05 74.27-6.35 75.45-7.65 75.84-10.1L75.84-10.1Q74.3-11.15 73.47-12.85 72.65-14.55 72.65-16.45L72.65-16.45Q72.65-17.25 72.8-18.05L72.8-18.05 72.55-18.05Q70.55-18.05 69.22-16.13 67.9-14.2 67.9-10.7L67.9-10.7Q67.9-7.95 68.97-6.5 70.05-5.05 71.5-5.05L71.5-5.05ZM88.49 0.25Q86.59 0.25 85.82-1.75 85.04-3.75 85.04-8.15L85.04-8.15Q85.04-14.65 86.89-20.5L86.89-20.5Q87.34-21.95 88.37-22.63 89.39-23.3 91.24-23.3L91.24-23.3Q92.24-23.3 92.64-23.05 93.04-22.8 93.04-22.1L93.04-22.1Q93.04-21.3 92.29-18.5L92.29-18.5Q91.79-16.5 91.49-15.03 91.19-13.55 90.99-11.35L90.99-11.35Q92.34-15.25 94.22-17.95 96.09-20.65 98.07-21.98 100.04-23.3 101.79-23.3L101.79-23.3Q103.54-23.3 104.27-22.5 104.99-21.7 104.99-20.05L104.99-20.05Q104.99-18.45 104.04-14.25L104.04-14.25Q103.64-12.45 103.49-11.55L103.49-11.55Q105.99-17.7 109.04-20.5 112.09-23.3 114.74-23.3L114.74-23.3Q117.99-23.3 117.99-20.05L117.99-20.05Q117.99-18.1 116.89-13L116.89-13Q115.94-8.65 115.94-7.25L115.94-7.25Q115.94-5.25 117.39-5.25L117.39-5.25Q118.39-5.25 119.77-6.48 121.14-7.7 123.44-10.45L123.44-10.45Q124.04-11.15 124.79-11.15L124.79-11.15Q125.44-11.15 125.82-10.55 126.19-9.95 126.19-8.9L126.19-8.9Q126.19-6.9 125.24-5.8L125.24-5.8Q123.09-3.15 120.62-1.45 118.14 0.25 114.99 0.25L114.99 0.25Q112.44 0.25 111.14-1.23 109.84-2.7 109.84-5.5L109.84-5.5Q109.84-6.9 110.54-10.5L110.54-10.5Q111.19-13.65 111.19-14.85L111.19-14.85Q111.19-15.65 110.64-15.65L110.64-15.65Q109.99-15.65 108.79-13.98 107.59-12.3 106.39-9.55 105.19-6.8 104.44-3.75L104.44-3.75Q103.89-1.35 103.17-0.55 102.44 0.25 100.84 0.25L100.84 0.25Q99.19 0.25 98.37-1.33 97.54-2.9 97.54-5.15L97.54-5.15Q97.54-7.05 98.04-10.65L98.04-10.65Q98.44-13.85 98.44-14.85L98.44-14.85Q98.44-15.65 97.89-15.65L97.89-15.65Q97.14-15.65 95.99-13.85 94.84-12.05 93.77-9.25 92.69-6.45 92.04-3.75L92.04-3.75Q91.49-1.4 90.77-0.58 90.04 0.25 88.49 0.25L88.49 0.25ZM144.44-11.15Q145.09-11.15 145.47-10.55 145.84-9.95 145.84-8.9L145.84-8.9Q145.84-6.9 144.89-5.8L144.89-5.8Q143.04-3.55 139.67-1.65 136.29 0.25 132.44 0.25L132.44 0.25Q127.19 0.25 124.29-2.6 121.39-5.45 121.39-10.4L121.39-10.4Q121.39-13.85 122.84-16.82 124.29-19.8 126.87-21.55 129.44-23.3 132.69-23.3L132.69-23.3Q135.59-23.3 137.34-21.58 139.09-19.85 139.09-16.9L139.09-16.9Q139.09-13.45 136.62-10.98 134.14-8.5 128.24-7.05L128.24-7.05Q129.49-4.75 132.99-4.75L132.99-4.75Q135.24-4.75 138.12-6.33 140.99-7.9 143.09-10.45L143.09-10.45Q143.69-11.15 144.44-11.15L144.44-11.15ZM131.84-18.4Q129.99-18.4 128.72-16.25 127.44-14.1 127.44-11.05L127.44-11.05 127.44-10.95Q130.39-11.65 132.09-13.05 133.79-14.45 133.79-16.3L133.79-16.3Q133.79-17.25 133.27-17.82 132.74-18.4 131.84-18.4L131.84-18.4ZM169.94-11.15Q170.59-11.15 170.96-10.55 171.34-9.95 171.34-8.9L171.34-8.9Q171.34-6.9 170.39-5.8L170.39-5.8Q168.34-3.3 165.89-1.53 163.44 0.25 161.04 0.25L161.04 0.25Q157.24 0.25 155.24-4.2L155.24-4.2Q153.14-1.55 151.56-0.65 149.99 0.25 147.89 0.25L147.89 0.25Q144.84 0.25 142.86-2.02 140.89-4.3 140.89-7.95L140.89-7.95Q140.89-11.95 142.59-15.38 144.29-18.8 147.26-20.98 150.24-23.15 153.94-23.55L153.94-23.55Q154.89-33.25 157.56-40.13 160.24-47 164.59-47L164.59-47Q166.74-47 168.16-45.05 169.59-43.1 169.59-39.15L169.59-39.15Q169.59-33.55 166.84-26.05 164.09-18.55 159.49-10.65L159.49-10.65Q159.69-7.75 160.36-6.5 161.04-5.25 162.09-5.25L162.09-5.25Q163.44-5.25 164.84-6.45 166.24-7.65 168.59-10.45L168.59-10.45Q169.19-11.15 169.94-11.15L169.94-11.15ZM164.04-42.1Q163.09-42.1 162.14-38.73 161.19-35.35 160.51-29.9 159.84-24.45 159.54-18.5L159.54-18.5Q165.14-30.7 165.14-38.1L165.14-38.1Q165.14-40 164.81-41.05 164.49-42.1 164.04-42.1L164.04-42.1ZM149.64-4.8Q150.59-4.8 151.54-5.58 152.49-6.35 153.94-8.45L153.94-8.45Q153.44-11.15 153.44-14.5L153.44-14.5Q153.44-15.7 153.54-18.4L153.54-18.4Q150.79-17.55 148.96-14.73 147.14-11.9 147.14-8.45L147.14-8.45Q147.14-4.8 149.64-4.8L149.64-4.8ZM173.84-26.6Q171.74-26.6 170.69-27.58 169.64-28.55 169.64-30.3L169.64-30.3Q169.64-32.05 171.01-33.23 172.39-34.4 174.44-34.4L174.44-34.4Q176.29-34.4 177.44-33.5 178.59-32.6 178.59-30.95L178.59-30.95Q178.59-28.95 177.29-27.78 175.99-26.6 173.84-26.6L173.84-26.6ZM173.44 0.25Q170.19 0.25 168.71-2.05 167.24-4.35 167.24-8.15L167.24-8.15Q167.24-10.4 167.81-13.93 168.39-17.45 169.29-20.5L169.29-20.5Q169.74-22.1 170.49-22.7 171.24-23.3 172.89-23.3L172.89-23.3Q175.44-23.3 175.44-21.6L175.44-21.6Q175.44-20.35 174.49-15.8L174.49-15.8Q173.29-10.3 173.29-8.35L173.29-8.35Q173.29-6.85 173.69-6.05 174.09-5.25 175.04-5.25L175.04-5.25Q175.94-5.25 177.29-6.5 178.64-7.75 180.89-10.45L180.89-10.45Q181.49-11.15 182.24-11.15L182.24-11.15Q182.89-11.15 183.26-10.55 183.64-9.95 183.64-8.9L183.64-8.9Q183.64-6.9 182.69-5.8L182.69-5.8Q177.74 0.25 173.44 0.25L173.44 0.25ZM185.73 0.25Q182.63 0.25 180.78-2 178.93-4.25 178.93-7.9L178.93-7.9Q178.93-11.9 180.78-15.48 182.63-19.05 185.71-21.23 188.78-23.4 192.23-23.4L192.23-23.4Q193.33-23.4 193.71-22.98 194.08-22.55 194.33-21.45L194.33-21.45Q195.38-21.65 196.53-21.65L196.53-21.65Q198.98-21.65 198.98-19.9L198.98-19.9Q198.98-18.85 198.23-14.9L198.23-14.9Q197.08-9.15 197.08-6.9L197.08-6.9Q197.08-6.15 197.46-5.7 197.83-5.25 198.43-5.25L198.43-5.25Q199.38-5.25 200.73-6.48 202.08-7.7 204.38-10.45L204.38-10.45Q204.98-11.15 205.73-11.15L205.73-11.15Q206.38-11.15 206.76-10.55 207.13-9.95 207.13-8.9L207.13-8.9Q207.13-6.9 206.18-5.8L206.18-5.8Q204.13-3.25 201.83-1.5 199.53 0.25 197.38 0.25L197.38 0.25Q195.73 0.25 194.36-0.88 192.98-2 192.28-3.95L192.28-3.95Q189.68 0.25 185.73 0.25L185.73 0.25ZM187.53-4.8Q188.63-4.8 189.63-6.1 190.63-7.4 191.08-9.55L191.08-9.55 192.93-18.75Q190.83-18.7 189.06-17.18 187.28-15.65 186.23-13.15 185.18-10.65 185.18-7.85L185.18-7.85Q185.18-6.3 185.81-5.55 186.43-4.8 187.53-4.8L187.53-4.8Z" opacity="1" transform="matrix(1,0,0,1,0,0)" fill="#ffffff" class="wordmark-text-0" data-fill-palette-color="quaternary" id="text-0"></path></svg></g></svg></g></svg></g></svg></g><g></g></svg></g><defs></defs></svg><rect width="395.52" height="125.17271840533724" fill="none" stroke="none" visibility="hidden"></rect></g></svg></g></svg>